<mxfile host="app.diagrams.net" modified="2023-12-08T21:10:39.230Z" agent="Mozilla/5.0 (Windows NT 10.0; Win64; x64) AppleWebKit/537.36 (KHTML, like Gecko) Chrome/119.0.0.0 Safari/537.36" etag="VUlDd7Stp7VdOQ2ihz6f" version="22.1.7" type="onedrive">
  <diagram name="Page-1" id="r7QO4Svnjzv9mqoSbV15">
    <mxGraphModel grid="1" page="1" gridSize="10" guides="1" tooltips="1" connect="1" arrows="1" fold="1" pageScale="1" pageWidth="827" pageHeight="1169" math="0" shadow="0">
      <root>
        <mxCell id="0" />
        <mxCell id="1" parent="0" />
        <mxCell id="rQY_pJQSnhhkj6G3Ea3p-53" style="edgeStyle=orthogonalEdgeStyle;rounded=0;orthogonalLoop=1;jettySize=auto;html=1;exitX=0.5;exitY=1;exitDx=0;exitDy=0;entryX=0.5;entryY=0;entryDx=0;entryDy=0;" edge="1" parent="1" target="rQY_pJQSnhhkj6G3Ea3p-54">
          <mxGeometry relative="1" as="geometry">
            <mxPoint x="253.67647058823536" y="660" as="targetPoint" />
            <mxPoint x="253" y="630" as="sourcePoint" />
          </mxGeometry>
        </mxCell>
        <mxCell id="rQY_pJQSnhhkj6G3Ea3p-84" style="edgeStyle=orthogonalEdgeStyle;rounded=0;orthogonalLoop=1;jettySize=auto;html=1;exitX=0.5;exitY=1;exitDx=0;exitDy=0;" edge="1" parent="1" source="rQY_pJQSnhhkj6G3Ea3p-54" target="rQY_pJQSnhhkj6G3Ea3p-85">
          <mxGeometry relative="1" as="geometry">
            <mxPoint x="253.17647058823536" y="730" as="targetPoint" />
          </mxGeometry>
        </mxCell>
        <mxCell id="rQY_pJQSnhhkj6G3Ea3p-54" value="&lt;span style=&quot;border-color: var(--border-color); font-family: Consolas, &amp;quot;Courier New&amp;quot;, monospace; font-size: 14px; font-style: normal; font-variant-ligatures: normal; font-variant-caps: normal; font-weight: 400; letter-spacing: normal; orphans: 2; text-align: left; text-indent: 0px; text-transform: none; widows: 2; word-spacing: 0px; -webkit-text-stroke-width: 0px; text-decoration-thickness: initial; text-decoration-style: initial; text-decoration-color: initial; color: rgb(64, 120, 242);&quot;&gt;setupAndRunUnpacked&lt;/span&gt;&lt;span style=&quot;border-color: var(--border-color); color: rgb(56, 58, 66); font-family: Consolas, &amp;quot;Courier New&amp;quot;, monospace; font-size: 14px; font-style: normal; font-variant-ligatures: normal; font-variant-caps: normal; font-weight: 400; letter-spacing: normal; orphans: 2; text-align: left; text-indent: 0px; text-transform: none; widows: 2; word-spacing: 0px; -webkit-text-stroke-width: 0px; text-decoration-thickness: initial; text-decoration-style: initial; text-decoration-color: initial;&quot;&gt;(&lt;/span&gt;&lt;span style=&quot;border-color: var(--border-color); font-family: Consolas, &amp;quot;Courier New&amp;quot;, monospace; font-size: 14px; font-style: normal; font-variant-ligatures: normal; font-variant-caps: normal; font-weight: 400; letter-spacing: normal; orphans: 2; text-align: left; text-indent: 0px; text-transform: none; widows: 2; word-spacing: 0px; -webkit-text-stroke-width: 0px; text-decoration-thickness: initial; text-decoration-style: initial; text-decoration-color: initial; color: rgb(166, 38, 164);&quot;&gt;*&lt;/span&gt;&lt;span style=&quot;border-color: var(--border-color); color: rgb(56, 58, 66); font-family: Consolas, &amp;quot;Courier New&amp;quot;, monospace; font-size: 14px; font-style: normal; font-variant-ligatures: normal; font-variant-caps: normal; font-weight: 400; letter-spacing: normal; orphans: 2; text-align: left; text-indent: 0px; text-transform: none; widows: 2; word-spacing: 0px; -webkit-text-stroke-width: 0px; text-decoration-thickness: initial; text-decoration-style: initial; text-decoration-color: initial;&quot;&gt;returnArr)&lt;/span&gt;" style="rounded=1;whiteSpace=wrap;html=1;" vertex="1" parent="1">
          <mxGeometry x="123" y="650" width="260" height="30" as="geometry" />
        </mxCell>
        <mxCell id="rQY_pJQSnhhkj6G3Ea3p-86" style="edgeStyle=orthogonalEdgeStyle;rounded=0;orthogonalLoop=1;jettySize=auto;html=1;exitX=0.5;exitY=1;exitDx=0;exitDy=0;" edge="1" parent="1" source="rQY_pJQSnhhkj6G3Ea3p-85" target="rQY_pJQSnhhkj6G3Ea3p-87">
          <mxGeometry relative="1" as="geometry">
            <mxPoint x="253.17647058823536" y="760" as="targetPoint" />
          </mxGeometry>
        </mxCell>
        <mxCell id="rQY_pJQSnhhkj6G3Ea3p-85" value="&lt;span style=&quot;border-color: var(--border-color); font-style: normal; font-variant-ligatures: normal; font-variant-caps: normal; font-weight: 400; letter-spacing: normal; orphans: 2; text-indent: 0px; text-transform: none; widows: 2; word-spacing: 0px; -webkit-text-stroke-width: 0px; text-decoration-thickness: initial; text-decoration-style: initial; text-decoration-color: initial; font-family: Consolas, &amp;quot;Courier New&amp;quot;, monospace; font-size: 14px; text-align: left; color: rgb(64, 120, 242);&quot;&gt;setupAndRunUnpacked&lt;/span&gt;&lt;span style=&quot;border-color: var(--border-color); font-style: normal; font-variant-ligatures: normal; font-variant-caps: normal; font-weight: 400; letter-spacing: normal; orphans: 2; text-indent: 0px; text-transform: none; widows: 2; word-spacing: 0px; -webkit-text-stroke-width: 0px; text-decoration-thickness: initial; text-decoration-style: initial; text-decoration-color: initial; color: rgb(56, 58, 66); font-family: Consolas, &amp;quot;Courier New&amp;quot;, monospace; font-size: 14px; text-align: left;&quot;&gt;(&lt;/span&gt;&lt;span style=&quot;border-color: var(--border-color); font-style: normal; font-variant-ligatures: normal; font-variant-caps: normal; font-weight: 400; letter-spacing: normal; orphans: 2; text-indent: 0px; text-transform: none; widows: 2; word-spacing: 0px; -webkit-text-stroke-width: 0px; text-decoration-thickness: initial; text-decoration-style: initial; text-decoration-color: initial; font-family: Consolas, &amp;quot;Courier New&amp;quot;, monospace; font-size: 14px; text-align: left; color: rgb(166, 38, 164);&quot;&gt;*&lt;/span&gt;&lt;span style=&quot;border-color: var(--border-color); font-style: normal; font-variant-ligatures: normal; font-variant-caps: normal; font-weight: 400; letter-spacing: normal; orphans: 2; text-indent: 0px; text-transform: none; widows: 2; word-spacing: 0px; -webkit-text-stroke-width: 0px; text-decoration-thickness: initial; text-decoration-style: initial; text-decoration-color: initial; color: rgb(56, 58, 66); font-family: Consolas, &amp;quot;Courier New&amp;quot;, monospace; font-size: 14px; text-align: left;&quot;&gt;returnArr)&lt;/span&gt;" style="rounded=0;whiteSpace=wrap;html=1;fillColor=#dae8fc;strokeColor=#6c8ebf;" vertex="1" parent="1">
          <mxGeometry x="122.51" y="710" width="260.49" height="20" as="geometry" />
        </mxCell>
        <mxCell id="rQY_pJQSnhhkj6G3Ea3p-88" style="edgeStyle=orthogonalEdgeStyle;rounded=0;orthogonalLoop=1;jettySize=auto;html=1;exitX=0.5;exitY=1;exitDx=0;exitDy=0;" edge="1" parent="1" source="rQY_pJQSnhhkj6G3Ea3p-87" target="rQY_pJQSnhhkj6G3Ea3p-89">
          <mxGeometry relative="1" as="geometry">
            <mxPoint x="253.17647058823536" y="1000" as="targetPoint" />
          </mxGeometry>
        </mxCell>
        <mxCell id="rQY_pJQSnhhkj6G3Ea3p-87" value="&lt;span style=&quot;color: rgb(56, 58, 66); font-family: Consolas, &amp;quot;Courier New&amp;quot;, monospace; font-size: 14px; background-color: initial;&quot;&gt;returnArrPtr &lt;/span&gt;&lt;span style=&quot;font-family: Consolas, &amp;quot;Courier New&amp;quot;, monospace; font-size: 14px; background-color: initial; color: rgb(166, 38, 164);&quot;&gt;=&lt;/span&gt;&lt;span style=&quot;color: rgb(56, 58, 66); font-family: Consolas, &amp;quot;Courier New&amp;quot;, monospace; font-size: 14px; background-color: initial;&quot;&gt; esp&lt;/span&gt;&lt;span style=&quot;font-family: Consolas, &amp;quot;Courier New&amp;quot;, monospace; font-size: 14px; background-color: initial; color: rgb(166, 38, 164);&quot;&gt;+&lt;/span&gt;&lt;span style=&quot;font-family: Consolas, &amp;quot;Courier New&amp;quot;, monospace; font-size: 14px; background-color: initial; color: rgb(152, 104, 1);&quot;&gt;0x7c&lt;/span&gt;&lt;br&gt;&lt;div style=&quot;font-family: Consolas, &amp;quot;Courier New&amp;quot;, monospace; font-weight: normal; font-size: 14px; line-height: 19px;&quot;&gt;&lt;div style=&quot;color: rgb(56, 58, 66);&quot;&gt;&lt;span style=&quot;color: #383a42;&quot;&gt;selfAddr &lt;/span&gt;&lt;span style=&quot;color: #a626a4;&quot;&gt;=&lt;/span&gt;&lt;span style=&quot;color: #383a42;&quot;&gt; [returnArr&lt;/span&gt;&lt;span style=&quot;color: #a626a4;&quot;&gt;+&lt;/span&gt;&lt;span style=&quot;color: #986801;&quot;&gt;0x4c&lt;/span&gt;&lt;span style=&quot;color: #383a42;&quot;&gt;]&lt;/span&gt;&lt;/div&gt;&lt;div style=&quot;color: rgb(56, 58, 66);&quot;&gt;&lt;span style=&quot;color: #383a42;&quot;&gt;sizeOfSelf &lt;/span&gt;&lt;span style=&quot;color: #a626a4;&quot;&gt;=&lt;/span&gt;&lt;span style=&quot;color: #383a42;&quot;&gt; [returnArr&lt;/span&gt;&lt;span style=&quot;color: #a626a4;&quot;&gt;+&lt;/span&gt;&lt;span style=&quot;color: #986801;&quot;&gt;0x50&lt;/span&gt;&lt;span style=&quot;color: #383a42;&quot;&gt;]&lt;/span&gt;&lt;/div&gt;&lt;div style=&quot;color: rgb(56, 58, 66);&quot;&gt;&lt;span style=&quot;color: #383a42;&quot;&gt;retAddr &lt;/span&gt;&lt;span style=&quot;color: #a626a4;&quot;&gt;=&lt;/span&gt;&lt;span style=&quot;color: #383a42;&quot;&gt; esp&lt;/span&gt;&lt;span style=&quot;color: #a626a4;&quot;&gt;+&lt;/span&gt;&lt;span style=&quot;color: #986801;&quot;&gt;0xb8&lt;/span&gt;&lt;/div&gt;&lt;div style=&quot;color: rgb(56, 58, 66);&quot;&gt;&lt;span style=&quot;color: #383a42;&quot;&gt;_0x4&lt;/span&gt;&lt;span style=&quot;color: #a626a4;&quot;&gt;=&lt;/span&gt;&lt;span style=&quot;color: #383a42;&quot;&gt; [returnArray&lt;/span&gt;&lt;span style=&quot;color: #a626a4;&quot;&gt;+&lt;/span&gt;&lt;span style=&quot;color: #986801;&quot;&gt;0x40&lt;/span&gt;&lt;span style=&quot;color: #383a42;&quot;&gt;]&lt;/span&gt;&lt;/div&gt;&lt;div style=&quot;color: rgb(56, 58, 66);&quot;&gt;&lt;span style=&quot;color: #383a42;&quot;&gt;_0x85000 &lt;/span&gt;&lt;span style=&quot;color: #a626a4;&quot;&gt;=&lt;/span&gt;&lt;span style=&quot;color: #383a42;&quot;&gt; [returnArray&lt;/span&gt;&lt;span style=&quot;color: #a626a4;&quot;&gt;+&lt;/span&gt;&lt;span style=&quot;color: #986801;&quot;&gt;0x48&lt;/span&gt;&lt;span style=&quot;color: #383a42;&quot;&gt;]&lt;/span&gt;&lt;/div&gt;&lt;div style=&quot;&quot;&gt;&lt;span style=&quot;color: rgb(56, 58, 66);&quot;&gt;VirtualProtect &lt;/span&gt;&lt;span style=&quot;color: rgb(166, 38, 164);&quot;&gt;=&lt;/span&gt;&lt;span style=&quot;color: rgb(56, 58, 66);&quot;&gt; [returnArr&lt;/span&gt;&lt;span style=&quot;color: rgb(166, 38, 164);&quot;&gt;+&lt;/span&gt;&lt;span style=&quot;color: rgb(152, 104, 1);&quot;&gt;0x20&lt;/span&gt;]&lt;/div&gt;&lt;div style=&quot;color: rgb(56, 58, 66);&quot;&gt;&lt;br&gt;&lt;/div&gt;&lt;div style=&quot;color: rgb(56, 58, 66);&quot;&gt;&lt;span style=&quot;color: #4078f2;&quot;&gt;VirtualProtect&lt;/span&gt;&lt;span style=&quot;color: #383a42;&quot;&gt;(selfAddr,sizeOfSelf,&amp;nbsp;&lt;/span&gt;PAGE_READWRITE&lt;span style=&quot;color: #383a42;&quot;&gt;,retAddr)&lt;/span&gt;&lt;/div&gt;&lt;div style=&quot;color: rgb(56, 58, 66);&quot;&gt;&lt;span style=&quot;color: rgb(64, 120, 242);&quot;&gt;newMemSet&lt;/span&gt;(selfAddr,&lt;span style=&quot;color: rgb(152, 104, 1);&quot;&gt;0x00&lt;/span&gt;,sizeOfSelf)&lt;br&gt;&lt;/div&gt;&lt;/div&gt;" style="rounded=1;whiteSpace=wrap;html=1;" vertex="1" parent="1">
          <mxGeometry x="22.51" y="750" width="460.49" height="210" as="geometry" />
        </mxCell>
        <mxCell id="rQY_pJQSnhhkj6G3Ea3p-90" style="edgeStyle=orthogonalEdgeStyle;rounded=0;orthogonalLoop=1;jettySize=auto;html=1;exitX=0.5;exitY=1;exitDx=0;exitDy=0;" edge="1" parent="1" source="rQY_pJQSnhhkj6G3Ea3p-89" target="rQY_pJQSnhhkj6G3Ea3p-91">
          <mxGeometry relative="1" as="geometry">
            <mxPoint x="253.17647058823536" y="1260" as="targetPoint" />
          </mxGeometry>
        </mxCell>
        <mxCell id="rQY_pJQSnhhkj6G3Ea3p-89" value="&lt;div style=&quot;color: rgb(56, 58, 66); font-family: Consolas, &amp;quot;Courier New&amp;quot;, monospace; font-size: 14px; line-height: 19px;&quot;&gt;&lt;div style=&quot;&quot;&gt;newestRWMem=[returnArr&lt;span style=&quot;color: rgb(166, 38, 164);&quot;&gt;+&lt;/span&gt;&lt;span style=&quot;color: rgb(152, 104, 1);&quot;&gt;0x3c&lt;/span&gt;]&lt;/div&gt;&lt;br&gt;&lt;div style=&quot;&quot;&gt;&lt;span style=&quot;color: rgb(64, 120, 242);&quot;&gt;newMemCpy_d&lt;/span&gt;(selfAddr,newestRWMem,_0x85000)&lt;/div&gt;&lt;div style=&quot;&quot;&gt;&lt;span style=&quot;color: rgb(64, 120, 242);&quot;&gt;newMemSet&lt;/span&gt;(newestRWMem,&lt;span style=&quot;color: rgb(152, 104, 1);&quot;&gt;0&lt;/span&gt;,_0x85000)&lt;br&gt;&lt;/div&gt;&lt;br&gt;&lt;div style=&quot;&quot;&gt;&lt;span style=&quot;color: rgb(64, 120, 242);&quot;&gt;VirtualProtect&lt;/span&gt;(selfAddr,&lt;span style=&quot;color: rgb(152, 104, 1);&quot;&gt;0x400&lt;/span&gt;,&lt;span style=&quot;color: rgb(152, 104, 1);&quot;&gt;0x2&lt;/span&gt;,retAddr)&lt;br&gt;&lt;/div&gt;&lt;div style=&quot;&quot;&gt;&lt;br&gt;&lt;/div&gt;&lt;div style=&quot;&quot;&gt;peHeader &lt;span style=&quot;color: #a626a4;&quot;&gt;=&lt;/span&gt; &lt;span style=&quot;color: #4078f2;&quot;&gt;getPEHeader_d&lt;/span&gt;(selfAddr)&lt;/div&gt;&lt;div style=&quot;&quot;&gt;optionalStart &lt;span style=&quot;color: rgb(166, 38, 164);&quot;&gt;=&lt;/span&gt; peHeader&lt;span style=&quot;color: rgb(166, 38, 164);&quot;&gt;+&lt;/span&gt;&lt;span style=&quot;color: rgb(152, 104, 1);&quot;&gt;0x18&lt;/span&gt;&lt;/div&gt;&lt;div style=&quot;&quot;&gt;sizeOfOptional &lt;span style=&quot;color: rgb(166, 38, 164);&quot;&gt;=&lt;/span&gt; [peHeader&lt;span style=&quot;color: rgb(166, 38, 164);&quot;&gt;+&lt;/span&gt;&lt;span style=&quot;color: rgb(152, 104, 1);&quot;&gt;0x14&lt;/span&gt;]&lt;/div&gt;&lt;div style=&quot;&quot;&gt;currSection &lt;span style=&quot;color: rgb(166, 38, 164);&quot;&gt;=&lt;/span&gt; optionalStart&lt;span style=&quot;color: rgb(166, 38, 164);&quot;&gt;+&lt;/span&gt;sizeOfOptional&lt;/div&gt;&lt;/div&gt;" style="rounded=1;whiteSpace=wrap;html=1;" vertex="1" parent="1">
          <mxGeometry x="49" y="980" width="408" height="220" as="geometry" />
        </mxCell>
        <mxCell id="rQY_pJQSnhhkj6G3Ea3p-92" style="edgeStyle=orthogonalEdgeStyle;rounded=0;orthogonalLoop=1;jettySize=auto;html=1;exitX=1;exitY=0.5;exitDx=0;exitDy=0;entryX=0;entryY=0.5;entryDx=0;entryDy=0;" edge="1" parent="1" source="rQY_pJQSnhhkj6G3Ea3p-91" target="rQY_pJQSnhhkj6G3Ea3p-93">
          <mxGeometry relative="1" as="geometry">
            <mxPoint x="252.42857142857156" y="1480" as="targetPoint" />
            <Array as="points">
              <mxPoint x="490" y="1290" />
              <mxPoint x="490" y="995" />
            </Array>
          </mxGeometry>
        </mxCell>
        <mxCell id="rQY_pJQSnhhkj6G3Ea3p-91" value="&lt;span style=&quot;color: rgb(56, 58, 66); font-family: Consolas, &amp;quot;Courier New&amp;quot;, monospace; font-size: 14px; background-color: initial;&quot;&gt;protArr &lt;/span&gt;&lt;span style=&quot;font-family: Consolas, &amp;quot;Courier New&amp;quot;, monospace; font-size: 14px; background-color: initial; color: rgb(166, 38, 164);&quot;&gt;=&lt;/span&gt;&lt;span style=&quot;color: rgb(56, 58, 66); font-family: Consolas, &amp;quot;Courier New&amp;quot;, monospace; font-size: 14px; background-color: initial;&quot;&gt; esp&lt;/span&gt;&lt;span style=&quot;font-family: Consolas, &amp;quot;Courier New&amp;quot;, monospace; font-size: 14px; background-color: initial; color: rgb(166, 38, 164);&quot;&gt;+&lt;/span&gt;&lt;span style=&quot;font-family: Consolas, &amp;quot;Courier New&amp;quot;, monospace; font-size: 14px; background-color: initial; color: rgb(152, 104, 1);&quot;&gt;0x98&lt;/span&gt;&lt;br&gt;&lt;div style=&quot;color: rgb(56, 58, 66); font-family: Consolas, &amp;quot;Courier New&amp;quot;, monospace; font-weight: normal; font-size: 14px; line-height: 19px;&quot;&gt;&lt;div&gt;&lt;span style=&quot;color: #383a42;&quot;&gt;protArrAdd0x14 &lt;/span&gt;&lt;span style=&quot;color: #a626a4;&quot;&gt;=&lt;/span&gt;&lt;span style=&quot;color: #383a42;&quot;&gt; protArr&lt;/span&gt;&lt;span style=&quot;color: #a626a4;&quot;&gt;+&lt;/span&gt;&lt;span style=&quot;color: #986801;&quot;&gt;0x14&lt;/span&gt;&lt;/div&gt;&lt;div&gt;&lt;span style=&quot;color: #383a42;&quot;&gt;protArrAdd0x18 &lt;/span&gt;&lt;span style=&quot;color: #a626a4;&quot;&gt;=&lt;/span&gt;&lt;span style=&quot;color: #383a42;&quot;&gt; protArr&lt;/span&gt;&lt;span style=&quot;color: #a626a4;&quot;&gt;+&lt;/span&gt;&lt;span style=&quot;color: #986801;&quot;&gt;0x18&lt;/span&gt;&lt;/div&gt;&lt;div&gt;&lt;span style=&quot;color: #383a42;&quot;&gt;protArrAdd0x1c &lt;/span&gt;&lt;span style=&quot;color: #a626a4;&quot;&gt;=&lt;/span&gt;&lt;span style=&quot;color: #383a42;&quot;&gt; protArr&lt;/span&gt;&lt;span style=&quot;color: #a626a4;&quot;&gt;+&lt;/span&gt;&lt;span style=&quot;color: #986801;&quot;&gt;0x1c&lt;/span&gt;&lt;/div&gt;&lt;div&gt;&lt;span style=&quot;color: #383a42;&quot;&gt;protArrAdd0x10 &lt;/span&gt;&lt;span style=&quot;color: #a626a4;&quot;&gt;=&lt;/span&gt;&lt;span style=&quot;color: #383a42;&quot;&gt; protArr&lt;/span&gt;&lt;span style=&quot;color: #a626a4;&quot;&gt;+&lt;/span&gt;&lt;span style=&quot;color: #986801;&quot;&gt;0x10&lt;/span&gt;&lt;/div&gt;&lt;div&gt;&lt;span style=&quot;color: #383a42;&quot;&gt;count&lt;/span&gt;&lt;span style=&quot;color: #a626a4;&quot;&gt;=&lt;/span&gt;&lt;span style=&quot;color: #986801;&quot;&gt;0&lt;/span&gt;&lt;/div&gt;&lt;/div&gt;" style="rounded=1;whiteSpace=wrap;html=1;" vertex="1" parent="1">
          <mxGeometry x="120.96" y="1230" width="263.59" height="120" as="geometry" />
        </mxCell>
        <mxCell id="rQY_pJQSnhhkj6G3Ea3p-96" style="edgeStyle=orthogonalEdgeStyle;rounded=0;orthogonalLoop=1;jettySize=auto;html=1;exitX=0.5;exitY=1;exitDx=0;exitDy=0;" edge="1" parent="1" source="rQY_pJQSnhhkj6G3Ea3p-93" target="rQY_pJQSnhhkj6G3Ea3p-97">
          <mxGeometry relative="1" as="geometry">
            <mxPoint x="724.9411764705883" y="1300" as="targetPoint" />
          </mxGeometry>
        </mxCell>
        <mxCell id="rQY_pJQSnhhkj6G3Ea3p-93" value="&lt;span style=&quot;color: rgb(56, 58, 66); font-family: Consolas, &amp;quot;Courier New&amp;quot;, monospace; font-size: 14px;&quot;&gt;currSectionVAddr &lt;/span&gt;&lt;span style=&quot;font-family: Consolas, &amp;quot;Courier New&amp;quot;, monospace; font-size: 14px; color: rgb(166, 38, 164);&quot;&gt;=&lt;/span&gt;&lt;span style=&quot;color: rgb(56, 58, 66); font-family: Consolas, &amp;quot;Courier New&amp;quot;, monospace; font-size: 14px;&quot;&gt; selfAddr&lt;/span&gt;&lt;span style=&quot;font-family: Consolas, &amp;quot;Courier New&amp;quot;, monospace; font-size: 14px; color: rgb(166, 38, 164);&quot;&gt;+&lt;/span&gt;&lt;span style=&quot;color: rgb(56, 58, 66); font-family: Consolas, &amp;quot;Courier New&amp;quot;, monospace; font-size: 14px;&quot;&gt;[currSection&lt;/span&gt;&lt;span style=&quot;font-family: Consolas, &amp;quot;Courier New&amp;quot;, monospace; font-size: 14px; color: rgb(166, 38, 164);&quot;&gt;+&lt;/span&gt;&lt;span style=&quot;font-family: Consolas, &amp;quot;Courier New&amp;quot;, monospace; font-size: 14px; color: rgb(152, 104, 1);&quot;&gt;0xc&lt;/span&gt;&lt;span style=&quot;color: rgb(56, 58, 66); font-family: Consolas, &amp;quot;Courier New&amp;quot;, monospace; font-size: 14px;&quot;&gt;]&lt;/span&gt;&lt;br&gt;&lt;div style=&quot;color: rgb(56, 58, 66); font-family: Consolas, &amp;quot;Courier New&amp;quot;, monospace; font-weight: normal; font-size: 14px; line-height: 19px;&quot;&gt;&lt;div&gt;characteristics &lt;span style=&quot;color: rgb(166, 38, 164);&quot;&gt;=&lt;/span&gt; [currSection&lt;span style=&quot;color: rgb(166, 38, 164);&quot;&gt;+&lt;/span&gt;&lt;span style=&quot;color: rgb(152, 104, 1);&quot;&gt;0x2&lt;/span&gt;]&amp;nbsp; &amp;nbsp;&lt;/div&gt;&lt;div&gt;virtualSize &lt;span style=&quot;color: rgb(166, 38, 164);&quot;&gt;=&lt;/span&gt; [currSection&lt;span style=&quot;color: rgb(166, 38, 164);&quot;&gt;+&lt;/span&gt;&lt;span style=&quot;color: rgb(152, 104, 1);&quot;&gt;0x8&lt;/span&gt;]&lt;/div&gt;&lt;div&gt;&amp;nbsp; &amp;nbsp;&amp;nbsp;&lt;/div&gt;&lt;div&gt;isReadable &lt;span style=&quot;color: rgb(166, 38, 164);&quot;&gt;=&lt;/span&gt; (characteristics&lt;span style=&quot;color: rgb(166, 38, 164);&quot;&gt;&amp;gt;&amp;gt;&lt;/span&gt;&lt;span style=&quot;color: rgb(152, 104, 1);&quot;&gt;0x1e&lt;/span&gt;) &lt;span style=&quot;color: rgb(166, 38, 164);&quot;&gt;&amp;amp;&lt;/span&gt; &lt;span style=&quot;color: rgb(152, 104, 1);&quot;&gt;0x1&lt;/span&gt;&amp;nbsp; &amp;nbsp;&lt;/div&gt;&lt;div&gt;isWriteable &lt;span style=&quot;color: rgb(166, 38, 164);&quot;&gt;=&lt;/span&gt; characteristics&lt;span style=&quot;color: rgb(166, 38, 164);&quot;&gt;&amp;gt;&amp;gt;&lt;/span&gt;&lt;span style=&quot;color: rgb(152, 104, 1);&quot;&gt;0x1f&lt;/span&gt;&lt;/div&gt;&lt;div&gt;isExecutable &lt;span style=&quot;color: rgb(166, 38, 164);&quot;&gt;=&lt;/span&gt; (characteristics&lt;span style=&quot;color: rgb(166, 38, 164);&quot;&gt;&amp;gt;&amp;gt;&lt;/span&gt;&lt;span style=&quot;color: rgb(152, 104, 1);&quot;&gt;0x1d&lt;/span&gt;) &lt;span style=&quot;color: rgb(166, 38, 164);&quot;&gt;&amp;amp;&lt;/span&gt; &lt;span style=&quot;color: rgb(152, 104, 1);&quot;&gt;0x1&lt;/span&gt;&lt;br&gt;&lt;/div&gt;&lt;br&gt;&lt;div&gt;[protArr] &lt;span style=&quot;color: rgb(166, 38, 164);&quot;&gt;=&lt;/span&gt; &lt;span style=&quot;color: rgb(152, 104, 1);&quot;&gt;0x1&lt;/span&gt;&lt;/div&gt;&lt;div&gt;[protArrAdd0x10] &lt;span style=&quot;color: rgb(166, 38, 164);&quot;&gt;=&lt;/span&gt; &lt;span style=&quot;color: rgb(152, 104, 1);&quot;&gt;0x2&lt;/span&gt;&lt;br&gt;&lt;/div&gt;&lt;div&gt;[protArrAdd0x18] &lt;span style=&quot;color: rgb(166, 38, 164);&quot;&gt;=&lt;/span&gt; &lt;span style=&quot;color: rgb(152, 104, 1);&quot;&gt;0x4&lt;/span&gt;&lt;br&gt;&lt;/div&gt;&lt;div&gt;[protArrAdd0x1c] &lt;span style=&quot;color: rgb(166, 38, 164);&quot;&gt;=&lt;/span&gt; &lt;span style=&quot;color: rgb(152, 104, 1);&quot;&gt;0x40&lt;/span&gt;&lt;br&gt;&lt;/div&gt;&lt;div&gt;[protArrAdd0x14] &lt;span style=&quot;color: rgb(166, 38, 164);&quot;&gt;=&lt;/span&gt; &lt;span style=&quot;color: rgb(152, 104, 1);&quot;&gt;0x20&lt;/span&gt;&lt;br&gt;&lt;/div&gt;&lt;div&gt;&lt;span style=&quot;color: rgb(152, 104, 1);&quot;&gt;&lt;br&gt;&lt;/span&gt;&lt;/div&gt;&lt;div&gt;protectionAddr &lt;span style=&quot;color: rgb(166, 38, 164);&quot;&gt;=&lt;/span&gt; protArr&lt;span style=&quot;color: rgb(166, 38, 164);&quot;&gt;+&lt;/span&gt;(isReadable&lt;span style=&quot;color: rgb(166, 38, 164);&quot;&gt;&amp;lt;&amp;lt;&lt;/span&gt;&lt;span style=&quot;color: rgb(152, 104, 1);&quot;&gt;0x4&lt;/span&gt;)&lt;br&gt;&lt;/div&gt;&lt;div&gt;protectionAddr &lt;span style=&quot;color: rgb(166, 38, 164);&quot;&gt;=&lt;/span&gt; protectionAddr&lt;span style=&quot;color: rgb(166, 38, 164);&quot;&gt;+&lt;/span&gt;(isWriteable&lt;span style=&quot;color: rgb(166, 38, 164);&quot;&gt;&amp;lt;&amp;lt;&lt;/span&gt;&lt;span style=&quot;color: rgb(152, 104, 1);&quot;&gt;0x3&lt;/span&gt;)&lt;/div&gt;&lt;div&gt;protectionAddr &lt;span style=&quot;color: rgb(166, 38, 164);&quot;&gt;=&lt;/span&gt; protectionAddr&lt;span style=&quot;color: rgb(166, 38, 164);&quot;&gt;+&lt;/span&gt;(isExecutable&lt;span style=&quot;color: rgb(166, 38, 164);&quot;&gt;&amp;lt;&amp;lt;&lt;/span&gt;&lt;span style=&quot;color: rgb(152, 104, 1);&quot;&gt;0x2&lt;/span&gt;)&lt;/div&gt;&lt;div&gt;&lt;span style=&quot;color: #383a42;&quot;&gt;&amp;nbsp; &amp;nbsp; &amp;nbsp; &amp;nbsp; protection &lt;/span&gt;&lt;span style=&quot;color: #a626a4;&quot;&gt;=&lt;/span&gt;&lt;span style=&quot;color: #383a42;&quot;&gt; [protectionAddr]&lt;/span&gt;&lt;/div&gt;&lt;div&gt;&lt;span style=&quot;color: #383a42;&quot;&gt;&amp;nbsp; &amp;nbsp; &lt;/span&gt;&lt;/div&gt;&lt;div&gt;&lt;span style=&quot;color: #4078f2;&quot;&gt;VirtualProtect&lt;/span&gt;&lt;span style=&quot;color: #383a42;&quot;&gt;(currSectionVAddr, virtualSize, protection, retAddr)&lt;/span&gt;&lt;/div&gt;&lt;div&gt;&lt;span style=&quot;color: #383a42;&quot;&gt;&lt;br&gt;&lt;/span&gt;&lt;/div&gt;&lt;div&gt;&lt;span style=&quot;color: #383a42;&quot;&gt;count&lt;/span&gt;&lt;span style=&quot;color: #a626a4;&quot;&gt;+=&lt;/span&gt;&lt;span style=&quot;color: #986801;&quot;&gt;1&lt;/span&gt;&lt;/div&gt;&lt;div&gt;currSectionAddr&lt;span style=&quot;color: rgb(166, 38, 164);&quot;&gt;+=&lt;/span&gt;&lt;span style=&quot;color: rgb(152, 104, 1);&quot;&gt;0x28&lt;/span&gt;&lt;/div&gt;&lt;/div&gt;" style="rounded=1;whiteSpace=wrap;html=1;" vertex="1" parent="1">
          <mxGeometry x="520" y="760" width="410" height="470" as="geometry" />
        </mxCell>
        <mxCell id="rQY_pJQSnhhkj6G3Ea3p-94" style="edgeStyle=orthogonalEdgeStyle;rounded=0;orthogonalLoop=1;jettySize=auto;html=1;exitX=0.5;exitY=1;exitDx=0;exitDy=0;entryX=0.5;entryY=0;entryDx=0;entryDy=0;" edge="1" parent="1" source="rQY_pJQSnhhkj6G3Ea3p-93" target="rQY_pJQSnhhkj6G3Ea3p-93">
          <mxGeometry relative="1" as="geometry">
            <Array as="points">
              <mxPoint x="725" y="1250" />
              <mxPoint x="960" y="1250" />
              <mxPoint x="960" y="740" />
              <mxPoint x="725" y="740" />
            </Array>
          </mxGeometry>
        </mxCell>
        <mxCell id="rQY_pJQSnhhkj6G3Ea3p-95" value="&lt;div style=&quot;color: rgb(56, 58, 66); font-family: Consolas, &amp;quot;Courier New&amp;quot;, monospace; font-size: 14px; line-height: 19px;&quot;&gt;&lt;div style=&quot;background-color: rgb(250, 250, 250);&quot;&gt;&lt;/div&gt;&lt;div style=&quot;&quot;&gt;count&lt;span style=&quot;color: rgb(166, 38, 164);&quot;&gt;!=&lt;/span&gt;_0x4&lt;/div&gt;&lt;/div&gt;" style="edgeLabel;html=1;align=center;verticalAlign=middle;resizable=0;points=[];" vertex="1" connectable="0" parent="rQY_pJQSnhhkj6G3Ea3p-94">
          <mxGeometry x="0.6754" y="-3" relative="1" as="geometry">
            <mxPoint x="1" as="offset" />
          </mxGeometry>
        </mxCell>
        <mxCell id="rQY_pJQSnhhkj6G3Ea3p-98" style="edgeStyle=orthogonalEdgeStyle;rounded=0;orthogonalLoop=1;jettySize=auto;html=1;exitX=0;exitY=0.5;exitDx=0;exitDy=0;startArrow=block;startFill=0;" edge="1" parent="1" source="rQY_pJQSnhhkj6G3Ea3p-97" target="xlYnHTBOVb-Fp0tkaqAw-1">
          <mxGeometry relative="1" as="geometry">
            <mxPoint x="440" y="1370" as="targetPoint" />
          </mxGeometry>
        </mxCell>
        <mxCell id="rQY_pJQSnhhkj6G3Ea3p-99" style="edgeStyle=orthogonalEdgeStyle;rounded=0;orthogonalLoop=1;jettySize=auto;html=1;exitX=0.5;exitY=1;exitDx=0;exitDy=0;" edge="1" parent="1" source="rQY_pJQSnhhkj6G3Ea3p-97" target="rQY_pJQSnhhkj6G3Ea3p-100">
          <mxGeometry relative="1" as="geometry">
            <mxPoint x="725.4285714285713" y="1440" as="targetPoint" />
          </mxGeometry>
        </mxCell>
        <mxCell id="rQY_pJQSnhhkj6G3Ea3p-97" value="&lt;span style=&quot;font-family: Consolas, &amp;quot;Courier New&amp;quot;, monospace; font-size: 14px; color: rgb(64, 120, 242);&quot;&gt;checkTLSDirSize&lt;/span&gt;&lt;span style=&quot;color: rgb(56, 58, 66); font-family: Consolas, &amp;quot;Courier New&amp;quot;, monospace; font-size: 14px;&quot;&gt;(&lt;/span&gt;&lt;span style=&quot;font-family: Consolas, &amp;quot;Courier New&amp;quot;, monospace; font-size: 14px; color: rgb(166, 38, 164);&quot;&gt;*&lt;/span&gt;&lt;span style=&quot;color: rgb(56, 58, 66); font-family: Consolas, &amp;quot;Courier New&amp;quot;, monospace; font-size: 14px;&quot;&gt;returnArr)&lt;/span&gt;" style="rounded=1;whiteSpace=wrap;html=1;" vertex="1" parent="1">
          <mxGeometry x="612.47" y="1340" width="225.06" height="40" as="geometry" />
        </mxCell>
        <mxCell id="rQY_pJQSnhhkj6G3Ea3p-100" value="&lt;br&gt;&lt;div style=&quot;color: rgb(56, 58, 66); font-family: Consolas, &amp;quot;Courier New&amp;quot;, monospace; font-weight: normal; font-size: 14px; line-height: 19px;&quot;&gt;&lt;div&gt;&lt;span style=&quot;color: #383a42;&quot;&gt;_0x265e8 &lt;/span&gt;&lt;span style=&quot;color: #a626a4;&quot;&gt;=&lt;/span&gt;&lt;span style=&quot;color: #383a42;&quot;&gt; [returnArray&lt;/span&gt;&lt;span style=&quot;color: #a626a4;&quot;&gt;+&lt;/span&gt;&lt;span style=&quot;color: #986801;&quot;&gt;0x44&lt;/span&gt;&lt;span style=&quot;color: #383a42;&quot;&gt;]&lt;/span&gt;&lt;/div&gt;&lt;div&gt;&lt;span style=&quot;color: #383a42;&quot;&gt;origStart &lt;/span&gt;&lt;span style=&quot;color: #a626a4;&quot;&gt;=&lt;/span&gt;&lt;span style=&quot;color: #383a42;&quot;&gt; [returnArr&lt;/span&gt;&lt;span style=&quot;color: #a626a4;&quot;&gt;+&lt;/span&gt;&lt;span style=&quot;color: #986801;&quot;&gt;0x6c&lt;/span&gt;&lt;span style=&quot;color: #383a42;&quot;&gt;]&lt;/span&gt;&lt;/div&gt;&lt;div&gt;&lt;span style=&quot;color: #383a42;&quot;&gt;origStart_2 &lt;/span&gt;&lt;span style=&quot;color: #a626a4;&quot;&gt;=&lt;/span&gt;&lt;span style=&quot;color: #383a42;&quot;&gt; [returnArr&lt;/span&gt;&lt;span style=&quot;color: #a626a4;&quot;&gt;+&lt;/span&gt;&lt;span style=&quot;color: #986801;&quot;&gt;0x70&lt;/span&gt;&lt;span style=&quot;color: #383a42;&quot;&gt;]&lt;/span&gt;&lt;/div&gt;&lt;div&gt;&lt;span style=&quot;color: #383a42;&quot;&gt;origEBX &lt;/span&gt;&lt;span style=&quot;color: #a626a4;&quot;&gt;=&lt;/span&gt;&lt;span style=&quot;color: #383a42;&quot;&gt; [returnArr&lt;/span&gt;&lt;span style=&quot;color: #a626a4;&quot;&gt;+&lt;/span&gt;&lt;span style=&quot;color: #986801;&quot;&gt;0x74&lt;/span&gt;&lt;span style=&quot;color: #383a42;&quot;&gt;]&lt;/span&gt;&lt;/div&gt;&lt;div&gt;&lt;span style=&quot;color: #383a42;&quot;&gt;origEBP &lt;/span&gt;&lt;span style=&quot;color: #a626a4;&quot;&gt;=&lt;/span&gt;&lt;span style=&quot;color: #383a42;&quot;&gt; [returnArr&lt;/span&gt;&lt;span style=&quot;color: #a626a4;&quot;&gt;+&lt;/span&gt;&lt;span style=&quot;color: #986801;&quot;&gt;0x68&lt;/span&gt;&lt;span style=&quot;color: #383a42;&quot;&gt;]&lt;/span&gt;&lt;/div&gt;&lt;div&gt;&lt;span style=&quot;color: #383a42;&quot;&gt;origESP &lt;/span&gt;&lt;span style=&quot;color: #a626a4;&quot;&gt;=&lt;/span&gt;&lt;span style=&quot;color: #383a42;&quot;&gt; [returnArr&lt;/span&gt;&lt;span style=&quot;color: #a626a4;&quot;&gt;+&lt;/span&gt;&lt;span style=&quot;color: #986801;&quot;&gt;0x64&lt;/span&gt;&lt;span style=&quot;color: #383a42;&quot;&gt;]&lt;/span&gt;&lt;/div&gt;&lt;div&gt;&lt;span style=&quot;color: #383a42;&quot;&gt;newEntry &lt;/span&gt;&lt;span style=&quot;color: #a626a4;&quot;&gt;=&lt;/span&gt;&lt;span style=&quot;color: #383a42;&quot;&gt; selfAddr&lt;/span&gt;&lt;span style=&quot;color: #a626a4;&quot;&gt;+&lt;/span&gt;&lt;span style=&quot;color: #383a42;&quot;&gt;_0x265e8&lt;/span&gt;&lt;/div&gt;&lt;br&gt;&lt;div&gt;&lt;span style=&quot;color: #383a42;&quot;&gt;esi &lt;/span&gt;&lt;span style=&quot;color: #a626a4;&quot;&gt;=&lt;/span&gt;&lt;span style=&quot;color: #383a42;&quot;&gt; origStart&lt;/span&gt;&lt;span style=&quot;color: #a0a1a7;font-style: italic;&quot;&gt;&amp;nbsp;&lt;/span&gt;&lt;/div&gt;&lt;div&gt;&lt;span style=&quot;color: #383a42;&quot;&gt;edi &lt;/span&gt;&lt;span style=&quot;color: #a626a4;&quot;&gt;=&lt;/span&gt;&lt;span style=&quot;color: #383a42;&quot;&gt; origStart_2&lt;/span&gt;&lt;span style=&quot;color: #a0a1a7;font-style: italic;&quot;&gt;&amp;nbsp;&lt;/span&gt;&lt;/div&gt;&lt;div&gt;&lt;span style=&quot;color: #383a42;&quot;&gt;ebx &lt;/span&gt;&lt;span style=&quot;color: #a626a4;&quot;&gt;=&lt;/span&gt;&lt;span style=&quot;color: #383a42;&quot;&gt; origEBX&lt;/span&gt;&lt;/div&gt;&lt;div&gt;&lt;span style=&quot;color: #383a42;&quot;&gt;eax &lt;/span&gt;&lt;span style=&quot;color: #a626a4;&quot;&gt;=&lt;/span&gt;&lt;span style=&quot;color: #383a42;&quot;&gt; newEntry&lt;/span&gt;&lt;span style=&quot;color: #a0a1a7;font-style: italic;&quot;&gt;&amp;nbsp;&lt;/span&gt;&lt;/div&gt;&lt;div&gt;&lt;span style=&quot;color: #4078f2;&quot;&gt;newEntry&lt;/span&gt;&lt;span style=&quot;color: #383a42;&quot;&gt;()&lt;/span&gt;&lt;/div&gt;&lt;/div&gt;" style="rounded=1;whiteSpace=wrap;html=1;" vertex="1" parent="1">
          <mxGeometry x="602.7199999999999" y="1410" width="244.57" height="270" as="geometry" />
        </mxCell>
        <mxCell id="xlYnHTBOVb-Fp0tkaqAw-9" style="edgeStyle=orthogonalEdgeStyle;rounded=0;orthogonalLoop=1;jettySize=auto;html=1;exitX=0.5;exitY=1;exitDx=0;exitDy=0;" edge="1" parent="1" source="xlYnHTBOVb-Fp0tkaqAw-1" target="xlYnHTBOVb-Fp0tkaqAw-10">
          <mxGeometry relative="1" as="geometry">
            <mxPoint x="365.105263157895" y="1490" as="targetPoint" />
          </mxGeometry>
        </mxCell>
        <mxCell id="xlYnHTBOVb-Fp0tkaqAw-1" value="&lt;span style=&quot;font-family: Consolas, &amp;quot;Courier New&amp;quot;, monospace; font-size: 14px; color: rgb(64, 120, 242);&quot;&gt;checkTLSDirSize&lt;/span&gt;&lt;span style=&quot;color: rgb(56, 58, 66); font-family: Consolas, &amp;quot;Courier New&amp;quot;, monospace; font-size: 14px;&quot;&gt;(&lt;/span&gt;&lt;span style=&quot;font-family: Consolas, &amp;quot;Courier New&amp;quot;, monospace; font-size: 14px; color: rgb(166, 38, 164);&quot;&gt;*&lt;/span&gt;&lt;span style=&quot;color: rgb(56, 58, 66); font-family: Consolas, &amp;quot;Courier New&amp;quot;, monospace; font-size: 14px;&quot;&gt;returnArr)&lt;/span&gt;" style="rounded=0;whiteSpace=wrap;html=1;fillColor=#ffe6cc;strokeColor=#d79b00;" vertex="1" parent="1">
          <mxGeometry x="255" y="1390" width="220" height="40" as="geometry" />
        </mxCell>
        <mxCell id="xlYnHTBOVb-Fp0tkaqAw-2" value="" style="endArrow=classic;html=1;rounded=0;startArrow=block;startFill=0;" edge="1" parent="1">
          <mxGeometry width="50" height="50" relative="1" as="geometry">
            <mxPoint x="50" y="1128" as="sourcePoint" />
            <mxPoint x="-60" y="1128" as="targetPoint" />
          </mxGeometry>
        </mxCell>
        <mxCell id="xlYnHTBOVb-Fp0tkaqAw-3" value="" style="endArrow=classic;html=1;rounded=0;startArrow=block;startFill=0;" edge="1" parent="1" source="rQY_pJQSnhhkj6G3Ea3p-89">
          <mxGeometry width="50" height="50" relative="1" as="geometry">
            <mxPoint x="49" y="1089.5" as="sourcePoint" />
            <mxPoint x="-59" y="1090.5" as="targetPoint" />
          </mxGeometry>
        </mxCell>
        <mxCell id="xlYnHTBOVb-Fp0tkaqAw-4" value="" style="endArrow=classic;html=1;rounded=0;startArrow=block;startFill=0;exitX=-0.001;exitY=0.329;exitDx=0;exitDy=0;exitPerimeter=0;" edge="1" parent="1" source="rQY_pJQSnhhkj6G3Ea3p-89">
          <mxGeometry width="50" height="50" relative="1" as="geometry">
            <mxPoint x="49" y="1060" as="sourcePoint" />
            <mxPoint x="-60" y="1052" as="targetPoint" />
          </mxGeometry>
        </mxCell>
        <mxCell id="xlYnHTBOVb-Fp0tkaqAw-5" value="" style="endArrow=classic;html=1;rounded=0;startArrow=block;startFill=0;exitX=0;exitY=0.25;exitDx=0;exitDy=0;" edge="1" parent="1" source="rQY_pJQSnhhkj6G3Ea3p-89">
          <mxGeometry width="50" height="50" relative="1" as="geometry">
            <mxPoint x="49" y="1030" as="sourcePoint" />
            <mxPoint x="-60" y="1035" as="targetPoint" />
          </mxGeometry>
        </mxCell>
        <mxCell id="xlYnHTBOVb-Fp0tkaqAw-6" value="" style="endArrow=classic;html=1;rounded=0;startArrow=block;startFill=0;exitX=0.009;exitY=0.93;exitDx=0;exitDy=0;exitPerimeter=0;" edge="1" parent="1" source="rQY_pJQSnhhkj6G3Ea3p-87">
          <mxGeometry width="50" height="50" relative="1" as="geometry">
            <mxPoint x="22.509999999999998" y="940" as="sourcePoint" />
            <mxPoint x="-80" y="945" as="targetPoint" />
          </mxGeometry>
        </mxCell>
        <mxCell id="xlYnHTBOVb-Fp0tkaqAw-11" style="edgeStyle=orthogonalEdgeStyle;rounded=0;orthogonalLoop=1;jettySize=auto;html=1;exitX=0.5;exitY=1;exitDx=0;exitDy=0;" edge="1" parent="1" source="xlYnHTBOVb-Fp0tkaqAw-10" target="xlYnHTBOVb-Fp0tkaqAw-12">
          <mxGeometry relative="1" as="geometry">
            <mxPoint x="365" y="1640" as="targetPoint" />
          </mxGeometry>
        </mxCell>
        <mxCell id="xlYnHTBOVb-Fp0tkaqAw-10" value="&lt;div style=&quot;color: rgb(56, 58, 66); font-family: Consolas, &amp;quot;Courier New&amp;quot;, monospace; font-weight: normal; font-size: 14px; line-height: 19px;&quot;&gt;&lt;div style=&quot;&quot;&gt;&lt;span style=&quot;color: rgb(56, 58, 66);&quot;&gt;varAddr &lt;/span&gt;&lt;span style=&quot;color: rgb(166, 38, 164);&quot;&gt;=&lt;/span&gt;&lt;span style=&quot;color: rgb(56, 58, 66);&quot;&gt; esp&lt;/span&gt;&lt;span style=&quot;color: rgb(166, 38, 164);&quot;&gt;+&lt;/span&gt;&lt;span style=&quot;color: rgb(152, 104, 1);&quot;&gt;0x5c&lt;/span&gt;&lt;/div&gt;&lt;div style=&quot;&quot;&gt;&lt;span style=&quot;color: #383a42;&quot;&gt;varAddr2 &lt;/span&gt;&lt;span style=&quot;color: #a626a4;&quot;&gt;=&lt;/span&gt;&lt;span style=&quot;color: #383a42;&quot;&gt; esp&lt;/span&gt;&lt;span style=&quot;color: #a626a4;&quot;&gt;+&lt;/span&gt;&lt;span style=&quot;color: #986801;&quot;&gt;0x68&lt;/span&gt;&lt;/div&gt;&lt;div style=&quot;&quot;&gt;&lt;span style=&quot;color: #383a42;&quot;&gt;selfAddr &lt;/span&gt;&lt;span style=&quot;color: #a626a4;&quot;&gt;=&lt;/span&gt;&lt;span style=&quot;color: #383a42;&quot;&gt; [returnArr&lt;/span&gt;&lt;span style=&quot;color: #a626a4;&quot;&gt;+&lt;/span&gt;&lt;span style=&quot;color: #986801;&quot;&gt;0x4c&lt;/span&gt;&lt;span style=&quot;color: #383a42;&quot;&gt;]&lt;/span&gt;&lt;/div&gt;&lt;div style=&quot;&quot;&gt;&lt;span style=&quot;background-color: initial;&quot;&gt;[varAddr] &lt;/span&gt;&lt;span style=&quot;background-color: initial; color: rgb(166, 38, 164);&quot;&gt;=&lt;/span&gt;&lt;span style=&quot;background-color: initial;&quot;&gt; selfAddr&lt;/span&gt;&lt;/div&gt;&lt;div style=&quot;&quot;&gt;&lt;span style=&quot;color: #383a42;&quot;&gt;kernel32Addr &lt;/span&gt;&lt;span style=&quot;color: #a626a4;&quot;&gt;=&lt;/span&gt;&lt;span style=&quot;color: #383a42;&quot;&gt; &lt;/span&gt;&lt;span style=&quot;color: #4078f2;&quot;&gt;findKernel32_d&lt;/span&gt;&lt;span style=&quot;color: #383a42;&quot;&gt;()&lt;/span&gt;&lt;/div&gt;&lt;div style=&quot;&quot;&gt;&lt;span style=&quot;color: #383a42;&quot;&gt;ntdllAddr &lt;/span&gt;&lt;span style=&quot;color: #a626a4;&quot;&gt;=&lt;/span&gt;&lt;span style=&quot;color: #383a42;&quot;&gt; &lt;/span&gt;&lt;span style=&quot;color: #4078f2;&quot;&gt;findNTDLLAddr_d&lt;/span&gt;&lt;span style=&quot;color: #383a42;&quot;&gt;()&lt;/span&gt;&lt;/div&gt;&lt;div style=&quot;&quot;&gt;&lt;span style=&quot;color: #383a42;&quot;&gt;peHeader &lt;/span&gt;&lt;span style=&quot;color: #a626a4;&quot;&gt;=&lt;/span&gt;&lt;span style=&quot;color: #383a42;&quot;&gt; &lt;/span&gt;&lt;span style=&quot;color: #4078f2;&quot;&gt;getPEHeader_d&lt;/span&gt;&lt;span style=&quot;color: #383a42;&quot;&gt;(selfAddr)&lt;/span&gt;&lt;/div&gt;&lt;/div&gt;" style="rounded=1;whiteSpace=wrap;html=1;" vertex="1" parent="1">
          <mxGeometry x="222.5" y="1460" width="285" height="140" as="geometry" />
        </mxCell>
        <mxCell id="xlYnHTBOVb-Fp0tkaqAw-12" value="&lt;span style=&quot;color: rgb(56, 58, 66); font-family: Consolas, &amp;quot;Courier New&amp;quot;, monospace; font-size: 14px;&quot;&gt;&amp;nbsp;tlsSize &lt;/span&gt;&lt;span style=&quot;font-family: Consolas, &amp;quot;Courier New&amp;quot;, monospace; font-size: 14px; color: rgb(166, 38, 164);&quot;&gt;=&lt;/span&gt;&lt;span style=&quot;color: rgb(56, 58, 66); font-family: Consolas, &amp;quot;Courier New&amp;quot;, monospace; font-size: 14px;&quot;&gt; [peHeader&lt;/span&gt;&lt;span style=&quot;font-family: Consolas, &amp;quot;Courier New&amp;quot;, monospace; font-size: 14px; color: rgb(166, 38, 164);&quot;&gt;+&lt;/span&gt;&lt;span style=&quot;font-family: Consolas, &amp;quot;Courier New&amp;quot;, monospace; font-size: 14px; color: rgb(152, 104, 1);&quot;&gt;0xc4&lt;/span&gt;&lt;span style=&quot;color: rgb(56, 58, 66); font-family: Consolas, &amp;quot;Courier New&amp;quot;, monospace; font-size: 14px;&quot;&gt;]&lt;/span&gt;&lt;br&gt;&lt;div style=&quot;font-family: Consolas, &amp;quot;Courier New&amp;quot;, monospace; font-weight: normal; font-size: 14px; line-height: 19px;&quot;&gt;&lt;div style=&quot;color: rgb(56, 58, 66);&quot;&gt;&lt;span style=&quot;color: #383a42;&quot;&gt;&amp;nbsp;retVar &lt;/span&gt;&lt;span style=&quot;color: #a626a4;&quot;&gt;=&lt;/span&gt;&lt;span style=&quot;color: #383a42;&quot;&gt; &lt;/span&gt;&lt;span style=&quot;color: #986801;&quot;&gt;1&lt;/span&gt;&lt;/div&gt;&lt;div style=&quot;color: rgb(56, 58, 66);&quot;&gt;&lt;span style=&quot;color: #383a42;&quot;&gt;&amp;nbsp;&lt;/span&gt;&lt;span style=&quot;color: #a626a4;&quot;&gt;if&lt;/span&gt;&lt;span style=&quot;color: #383a42;&quot;&gt; tlsSize&lt;/span&gt;&lt;span style=&quot;color: #a626a4;&quot;&gt;==&lt;/span&gt;&lt;span style=&quot;color: #986801;&quot;&gt;0&lt;/span&gt;&lt;span style=&quot;color: #383a42;&quot;&gt;:&lt;/span&gt;&lt;/div&gt;&lt;div style=&quot;color: rgb(56, 58, 66);&quot;&gt;&lt;span style=&quot;color: #383a42;&quot;&gt;&amp;nbsp; &amp;nbsp;&amp;nbsp;&lt;/span&gt;&lt;span style=&quot;color: #a626a4;&quot;&gt;return&lt;/span&gt;&lt;span style=&quot;color: #383a42;&quot;&gt; retVar&lt;/span&gt;&lt;/div&gt;&lt;div style=&quot;&quot;&gt;&lt;font style=&quot;&quot; color=&quot;#383a42&quot;&gt;&amp;nbsp;&lt;/font&gt;&lt;span style=&quot;color: rgb(166, 38, 164);&quot;&gt;else&lt;/span&gt;&lt;span style=&quot;color: rgb(56, 58, 66);&quot;&gt;:&lt;/span&gt;&lt;/div&gt;&lt;div style=&quot;&quot;&gt;&lt;span style=&quot;color: rgb(56, 58, 66);&quot;&gt;&amp;nbsp; &amp;nbsp; ...&lt;/span&gt;&lt;/div&gt;&lt;/div&gt;" style="rounded=1;whiteSpace=wrap;html=1;align=left;" vertex="1" parent="1">
          <mxGeometry x="260" y="1620" width="210" height="130" as="geometry" />
        </mxCell>
        <mxCell id="xlYnHTBOVb-Fp0tkaqAw-14" value="&lt;span style=&quot;font-family: Consolas, &amp;quot;Courier New&amp;quot;, monospace; font-size: 14px; text-align: left; border-color: var(--border-color); color: rgb(64, 120, 242);&quot;&gt;changeOrigLDRData&lt;/span&gt;&lt;span style=&quot;color: rgb(56, 58, 66); font-family: Consolas, &amp;quot;Courier New&amp;quot;, monospace; font-size: 14px; text-align: left; border-color: var(--border-color);&quot;&gt;(&lt;/span&gt;&lt;span style=&quot;font-family: Consolas, &amp;quot;Courier New&amp;quot;, monospace; font-size: 14px; text-align: left; border-color: var(--border-color); color: rgb(166, 38, 164);&quot;&gt;*&lt;/span&gt;&lt;span style=&quot;color: rgb(56, 58, 66); font-family: Consolas, &amp;quot;Courier New&amp;quot;, monospace; font-size: 14px; text-align: left; border-color: var(--border-color);&quot;&gt;returnArr)&lt;/span&gt;&lt;br&gt;&lt;div style=&quot;border-color: var(--border-color); font-family: Consolas, &amp;quot;Courier New&amp;quot;, monospace; font-size: 14px; font-style: normal; font-variant-ligatures: normal; font-variant-caps: normal; font-weight: 400; letter-spacing: normal; orphans: 2; text-align: left; text-indent: 0px; text-transform: none; widows: 2; word-spacing: 0px; -webkit-text-stroke-width: 0px; text-decoration-thickness: initial; text-decoration-style: initial; text-decoration-color: initial; color: rgb(56, 58, 66);&quot;&gt;&lt;/div&gt;" style="rounded=1;whiteSpace=wrap;html=1;" vertex="1" parent="1">
          <mxGeometry x="129.5" y="600" width="247" height="30" as="geometry" />
        </mxCell>
      </root>
    </mxGraphModel>
  </diagram>
</mxfile>
